<mxfile host="app.diagrams.net" modified="2022-02-22T03:02:24.185Z" agent="5.0 (Windows NT 10.0; Win64; x64) AppleWebKit/537.36 (KHTML, like Gecko) Chrome/98.0.4758.82 Safari/537.36" etag="Z6pRb_yrWpNIKFnMvXgH" version="15.1.2" type="github">
  <diagram name="Page-1" id="90a13364-a465-7bf4-72fc-28e22215d7a0">
    <mxGraphModel dx="1483" dy="781" grid="1" gridSize="10" guides="1" tooltips="1" connect="1" arrows="1" fold="1" page="1" pageScale="1.5" pageWidth="1169" pageHeight="826" background="none" math="0" shadow="0">
      <root>
        <mxCell id="0" style=";html=1;" />
        <mxCell id="1" style=";html=1;" parent="0" />
        <mxCell id="OBcBidcpHAMQU4BjEHpT-6" value="" style="whiteSpace=wrap;html=1;aspect=fixed;fontSize=20;fillColor=none;dashed=1;strokeWidth=2;" vertex="1" parent="1">
          <mxGeometry x="520" y="480" width="560" height="560" as="geometry" />
        </mxCell>
        <mxCell id="OBcBidcpHAMQU4BjEHpT-1" value="&lt;h1&gt;Canyon Motorsports Wiring Harness 2022-2023&lt;/h1&gt;&lt;div&gt;Electrical Team - Ryan Kotrosa - Updated 2/21/2022&lt;/div&gt;&lt;p&gt;Current wiring harness complete connection diagram. Using current parts, displaying all connections.&lt;/p&gt;&lt;p&gt;This diagram does not account for physical position, though it is organized roughly by position.&lt;/p&gt;" style="text;html=1;strokeColor=none;fillColor=none;spacing=5;spacingTop=-20;whiteSpace=wrap;overflow=hidden;rounded=0;" vertex="1" parent="1">
          <mxGeometry x="310" y="220" width="310" height="200" as="geometry" />
        </mxCell>
        <mxCell id="OBcBidcpHAMQU4BjEHpT-4" value="ECU" style="rounded=0;whiteSpace=wrap;html=1;fontSize=20;fontStyle=1" vertex="1" parent="1">
          <mxGeometry x="710" y="520" width="270" height="430" as="geometry" />
        </mxCell>
        <mxCell id="OBcBidcpHAMQU4BjEHpT-7" value="MAP" style="rounded=0;whiteSpace=wrap;html=1;fontSize=20;strokeWidth=1;fillColor=#dae8fc;strokeColor=#6c8ebf;" vertex="1" parent="1">
          <mxGeometry x="1480" y="400" width="160" height="60" as="geometry" />
        </mxCell>
        <mxCell id="OBcBidcpHAMQU4BjEHpT-8" value="Engine Coolant&lt;br&gt;Temp" style="rounded=0;whiteSpace=wrap;html=1;fontSize=20;strokeWidth=1;fillColor=#dae8fc;strokeColor=#6c8ebf;" vertex="1" parent="1">
          <mxGeometry x="1480" y="480" width="160" height="60" as="geometry" />
        </mxCell>
        <mxCell id="OBcBidcpHAMQU4BjEHpT-9" value="Intake&lt;br&gt;Temp" style="rounded=0;whiteSpace=wrap;html=1;fontSize=20;strokeWidth=1;fillColor=#dae8fc;strokeColor=#6c8ebf;" vertex="1" parent="1">
          <mxGeometry x="1480" y="560" width="160" height="60" as="geometry" />
        </mxCell>
        <mxCell id="OBcBidcpHAMQU4BjEHpT-10" value="CAM" style="rounded=0;whiteSpace=wrap;html=1;fontSize=20;strokeWidth=1;fillColor=#dae8fc;strokeColor=#6c8ebf;" vertex="1" parent="1">
          <mxGeometry x="1480" y="640" width="160" height="60" as="geometry" />
        </mxCell>
        <mxCell id="OBcBidcpHAMQU4BjEHpT-11" value="Crank" style="rounded=0;whiteSpace=wrap;html=1;fontSize=20;strokeWidth=1;fillColor=#dae8fc;strokeColor=#6c8ebf;" vertex="1" parent="1">
          <mxGeometry x="1480" y="720" width="160" height="60" as="geometry" />
        </mxCell>
        <mxCell id="OBcBidcpHAMQU4BjEHpT-12" value="Oil Pressure" style="rounded=0;whiteSpace=wrap;html=1;fontSize=20;strokeWidth=1;fillColor=#dae8fc;strokeColor=#6c8ebf;" vertex="1" parent="1">
          <mxGeometry x="1480" y="800" width="160" height="60" as="geometry" />
        </mxCell>
        <mxCell id="OBcBidcpHAMQU4BjEHpT-13" value="O2" style="rounded=0;whiteSpace=wrap;html=1;fontSize=20;strokeWidth=1;fillColor=#dae8fc;strokeColor=#6c8ebf;" vertex="1" parent="1">
          <mxGeometry x="1480" y="880" width="160" height="60" as="geometry" />
        </mxCell>
        <mxCell id="OBcBidcpHAMQU4BjEHpT-14" value="Coil Packs" style="rounded=0;whiteSpace=wrap;html=1;fontSize=20;strokeWidth=1;fillColor=#ffe6cc;strokeColor=#d79b00;" vertex="1" parent="1">
          <mxGeometry x="1480" y="1000" width="160" height="60" as="geometry" />
        </mxCell>
        <mxCell id="OBcBidcpHAMQU4BjEHpT-15" value="Generator" style="rounded=0;whiteSpace=wrap;html=1;fontSize=20;strokeWidth=1;fillColor=#d5e8d4;strokeColor=#82b366;" vertex="1" parent="1">
          <mxGeometry x="1480" y="320" width="160" height="60" as="geometry" />
        </mxCell>
        <mxCell id="OBcBidcpHAMQU4BjEHpT-16" value="Injectors" style="rounded=0;whiteSpace=wrap;html=1;fontSize=20;strokeWidth=1;fillColor=#ffe6cc;strokeColor=#d79b00;" vertex="1" parent="1">
          <mxGeometry x="1480" y="1080" width="160" height="60" as="geometry" />
        </mxCell>
      </root>
    </mxGraphModel>
  </diagram>
</mxfile>
